<?xml version="1.0" standalone="no"?>
<!DOCTYPE svg PUBLIC "-//W3C//DTD SVG 20010904//EN"
 "http://www.w3.org/TR/2001/REC-SVG-20010904/DTD/svg10.dtd">
<svg version="1.0" xmlns="http://www.w3.org/2000/svg"
 width="323.000000pt" height="315.000000pt" viewBox="0 0 323.000000 315.000000"
 preserveAspectRatio="xMidYMid meet">

<g transform="translate(0.000000,315.000000) scale(0.100000,-0.100000)"
fill="#000000" stroke="none">
<path d="M1644 2508 c-605 -711 -897 -1053 -990 -1160 l-24 -28 362 -2 c393
-1 384 -1 391 -8 3 -3 1 -30 -4 -60 -19 -124 -129 -993 -126 -996 2 -2 95 105
208 238 198 235 294 349 464 548 45 52 156 183 247 290 91 107 218 256 281
330 l114 135 -365 3 c-202 1 -370 6 -374 10 -7 7 35 355 106 877 13 99 23 181
22 183 -2 1 -142 -161 -312 -360z m-20 -410 c-12 -76 -64 -483 -64 -503 l0
-25 252 -2 251 -3 -204 -240 c-112 -132 -221 -261 -242 -285 l-38 -45 6 35 c3
19 16 123 30 230 14 107 27 214 31 238 l5 42 -188 2 c-103 1 -219 2 -256 1
-37 0 -66 3 -65 8 2 4 100 121 220 261 119 139 226 265 238 281 26 33 28 33
24 5z"/>
</g>
</svg>
